<svg width="409" height="235" viewBox="0 0 409 235" fill="none" xmlns="http://www.w3.org/2000/svg">
<g clip-path="url(#clip0)">
<path d="M211.134 6.70792C212.988 6.70792 214.491 5.2063 214.491 3.35396C214.491 1.50162 212.988 0 211.134 0C209.279 0 207.776 1.50162 207.776 3.35396C207.776 5.2063 209.279 6.70792 211.134 6.70792Z" fill="#F2F2F2"/>
<path d="M211.134 20.0749C212.988 20.0749 214.491 18.5732 214.491 16.7209C214.491 14.8686 212.988 13.3669 211.134 13.3669C209.279 13.3669 207.776 14.8686 207.776 16.7209C207.776 18.5732 209.279 20.0749 211.134 20.0749Z" fill="#F2F2F2"/>
<path d="M225.15 6.70792C227.004 6.70792 228.508 5.2063 228.508 3.35396C228.508 1.50162 227.004 0 225.15 0C223.296 0 221.793 1.50162 221.793 3.35396C221.793 5.2063 223.296 6.70792 225.15 6.70792Z" fill="#F2F2F2"/>
<path d="M225.15 20.0749C227.004 20.0749 228.508 18.5732 228.508 16.7209C228.508 14.8686 227.004 13.3669 225.15 13.3669C223.296 13.3669 221.793 14.8686 221.793 16.7209C221.793 18.5732 223.296 20.0749 225.15 20.0749Z" fill="#F2F2F2"/>
<path d="M239.168 6.70792C241.022 6.70792 242.525 5.2063 242.525 3.35396C242.525 1.50162 241.022 0 239.168 0C237.314 0 235.811 1.50162 235.811 3.35396C235.811 5.2063 237.314 6.70792 239.168 6.70792Z" fill="#F2F2F2"/>
<path d="M239.168 20.0749C241.022 20.0749 242.525 18.5732 242.525 16.7209C242.525 14.8686 241.022 13.3669 239.168 13.3669C237.314 13.3669 235.811 14.8686 235.811 16.7209C235.811 18.5732 237.314 20.0749 239.168 20.0749Z" fill="#F2F2F2"/>
<path d="M239.168 33.4418C241.022 33.4418 242.525 31.9402 242.525 30.0879C242.525 28.2355 241.022 26.7339 239.168 26.7339C237.314 26.7339 235.811 28.2355 235.811 30.0879C235.811 31.9402 237.314 33.4418 239.168 33.4418Z" fill="#F2F2F2"/>
<path d="M239.168 46.8088C241.022 46.8088 242.525 45.3072 242.525 43.4548C242.525 41.6025 241.022 40.1009 239.168 40.1009C237.314 40.1009 235.811 41.6025 235.811 43.4548C235.811 45.3072 237.314 46.8088 239.168 46.8088Z" fill="#F2F2F2"/>
<path d="M253.184 6.70792C255.039 6.70792 256.542 5.2063 256.542 3.35396C256.542 1.50162 255.039 0 253.184 0C251.33 0 249.827 1.50162 249.827 3.35396C249.827 5.2063 251.33 6.70792 253.184 6.70792Z" fill="#F2F2F2"/>
<path d="M253.184 20.0749C255.039 20.0749 256.542 18.5732 256.542 16.7209C256.542 14.8686 255.039 13.3669 253.184 13.3669C251.33 13.3669 249.827 14.8686 249.827 16.7209C249.827 18.5732 251.33 20.0749 253.184 20.0749Z" fill="#F2F2F2"/>
<path d="M253.184 33.4418C255.039 33.4418 256.542 31.9402 256.542 30.0879C256.542 28.2355 255.039 26.7339 253.184 26.7339C251.33 26.7339 249.827 28.2355 249.827 30.0879C249.827 31.9402 251.33 33.4418 253.184 33.4418Z" fill="#F2F2F2"/>
<path d="M253.184 46.8088C255.039 46.8088 256.542 45.3072 256.542 43.4548C256.542 41.6025 255.039 40.1009 253.184 40.1009C251.33 40.1009 249.827 41.6025 249.827 43.4548C249.827 45.3072 251.33 46.8088 253.184 46.8088Z" fill="#F2F2F2"/>
<path d="M267.202 6.70792C269.056 6.70792 270.559 5.2063 270.559 3.35396C270.559 1.50162 269.056 0 267.202 0C265.348 0 263.845 1.50162 263.845 3.35396C263.845 5.2063 265.348 6.70792 267.202 6.70792Z" fill="#F2F2F2"/>
<path d="M267.202 20.0749C269.056 20.0749 270.559 18.5732 270.559 16.7209C270.559 14.8686 269.056 13.3669 267.202 13.3669C265.348 13.3669 263.845 14.8686 263.845 16.7209C263.845 18.5732 265.348 20.0749 267.202 20.0749Z" fill="#F2F2F2"/>
<path d="M281.219 6.70792C283.073 6.70792 284.576 5.2063 284.576 3.35396C284.576 1.50162 283.073 0 281.219 0C279.364 0 277.861 1.50162 277.861 3.35396C277.861 5.2063 279.364 6.70792 281.219 6.70792Z" fill="#F2F2F2"/>
<path d="M281.219 20.0749C283.073 20.0749 284.576 18.5732 284.576 16.7209C284.576 14.8686 283.073 13.3669 281.219 13.3669C279.364 13.3669 277.861 14.8686 277.861 16.7209C277.861 18.5732 279.364 20.0749 281.219 20.0749Z" fill="#F2F2F2"/>
<path d="M383.711 176.989H358.787C358.787 177.704 333.099 178.285 333.099 178.285C332.696 178.589 332.328 178.937 332.004 179.323C331.028 180.485 330.495 181.955 330.498 183.472V184.509C330.499 186.228 331.183 187.877 332.399 189.092C333.616 190.308 335.267 190.991 336.987 190.992H383.711C385.431 190.99 387.081 190.307 388.298 189.091C389.514 187.876 390.199 186.228 390.2 184.509V183.472C390.198 181.753 389.513 180.105 388.297 178.89C387.08 177.675 385.431 176.991 383.711 176.989Z" fill="#3F3D56"/>
<path d="M363.98 190.734H357.231V234.3H363.98V190.734Z" fill="#3F3D56"/>
<path d="M383.189 234.063C383.189 234.791 372.962 234.345 360.346 234.345C347.731 234.345 337.504 234.791 337.504 234.063C337.504 233.334 347.731 227.557 360.346 227.557C372.962 227.557 383.189 233.334 383.189 234.063Z" fill="#3F3D56"/>
<path d="M326.597 228.333L320.232 228.332L317.204 203.807L326.598 203.808L326.597 228.333Z" fill="#FFB8B8"/>
<path d="M315.686 226.516H327.96V234.237H307.957C307.957 232.189 308.771 230.225 310.221 228.777C311.67 227.329 313.636 226.516 315.686 226.516Z" fill="#2F2E41"/>
<path d="M316.661 224.784L310.589 222.88L315.049 198.574L324.012 201.384L316.661 224.784Z" fill="#FFB8B8"/>
<path d="M306.796 219.787L318.507 223.459L316.193 230.825L297.108 224.842C297.412 223.875 297.903 222.976 298.555 222.199C299.206 221.421 300.004 220.779 300.904 220.31C301.803 219.841 302.787 219.553 303.798 219.463C304.809 219.373 305.827 219.483 306.796 219.787Z" fill="#2F2E41"/>
<path d="M366.665 172.737C366.518 171.502 366.254 170.282 365.876 169.097L364.687 167.603L361.593 163.724L361.458 163.729C361.23 163.739 360.28 163.791 358.811 163.905H358.795C357.886 163.978 356.775 164.071 355.514 164.19C355.182 164.227 354.834 164.258 354.476 164.294V169.709H360.965C361.28 169.709 361.585 169.824 361.822 170.032C362.059 170.24 362.212 170.527 362.253 170.839C362.258 170.896 362.263 170.948 362.263 171.005C362.263 171.349 362.126 171.679 361.883 171.922C361.639 172.165 361.309 172.302 360.965 172.302H323.275C322.795 172.62 322.333 172.967 321.894 173.339C320.566 174.366 319.609 175.797 319.168 177.416C316.967 187.083 312.954 205.111 311.77 210.406C311.685 210.805 311.704 211.219 311.827 211.608C311.95 211.998 312.172 212.348 312.471 212.626C312.692 212.832 312.952 212.992 313.235 213.098L317.917 214.851C318.11 214.922 318.31 214.969 318.514 214.991C318.54 214.991 318.561 214.996 318.587 214.996C318.635 215 318.684 215.002 318.732 215.001C319.206 214.999 319.668 214.855 320.058 214.586C320.447 214.318 320.747 213.938 320.918 213.497L324.614 203.809L330.309 188.872L332.562 182.965C335.174 183.577 357.082 188.421 364.417 180.616C365.141 179.846 365.712 178.947 366.1 177.965C366.717 176.296 366.911 174.5 366.665 172.737Z" fill="#2F2E41"/>
<path d="M373.019 174.148C372.905 173.686 372.775 173.209 372.625 172.727L368.342 167.354L368.207 167.359C367.937 167.375 366.654 167.442 364.687 167.603C362.455 167.79 359.334 168.09 355.83 168.562C355.726 168.573 355.617 168.588 355.513 168.604C355.171 168.651 354.823 168.697 354.475 168.749V169.709H360.964C361.28 169.709 361.584 169.824 361.821 170.032C362.058 170.24 362.211 170.527 362.252 170.839C362.257 170.896 362.262 170.948 362.262 171.005C362.262 171.349 362.125 171.679 361.882 171.922C361.639 172.165 361.309 172.302 360.964 172.302H338.028C337.027 172.628 336.061 172.971 335.137 173.339C330.288 175.258 326.659 177.773 325.917 181.046C325.667 182.145 325.392 183.354 325.102 184.64C324.022 189.422 322.708 195.277 321.52 200.598V200.604C321.275 201.703 321.032 202.772 320.798 203.809C319.806 208.269 318.965 212.05 318.519 214.036C318.508 214.093 318.498 214.145 318.488 214.202V214.213C318.436 214.614 318.486 215.023 318.633 215.4L318.638 215.405V215.411C318.781 215.772 319.013 216.092 319.313 216.339C319.514 216.504 319.74 216.636 319.983 216.728L324.666 218.481C324.926 218.578 325.202 218.629 325.481 218.631C325.871 218.632 326.255 218.534 326.597 218.346C327.087 218.081 327.467 217.648 327.666 217.127L337.748 190.698L339.311 186.595C341.922 187.207 363.83 192.046 371.166 184.246C372.615 182.679 373.442 180.637 373.491 178.505C373.543 177.037 373.384 175.57 373.019 174.148Z" fill="#2F2E41"/>
<path d="M372.443 128.394C372.36 128.296 372.272 128.197 372.178 128.104C370.796 126.651 369.088 125.547 367.196 124.881C365.304 124.215 363.28 124.006 361.292 124.271C359.557 124.499 357.839 124.836 356.147 125.282C353.962 125.843 351.962 126.964 350.343 128.534C349.082 129.755 348.089 131.225 347.427 132.85C346.765 134.475 346.448 136.219 346.496 137.973C346.517 138.684 346.522 139.41 346.512 140.146C346.512 140.489 346.506 140.836 346.501 141.184H351.62C351.842 141.183 352.064 141.209 352.279 141.261C352.904 141.411 353.46 141.765 353.859 142.269C354.257 142.772 354.474 143.394 354.475 144.036V168.163C354.823 168.262 355.171 168.36 355.514 168.464C355.623 168.5 355.727 168.531 355.83 168.562C355.95 168.599 356.069 168.635 356.183 168.671C357.237 168.998 358.267 169.344 359.272 169.709H360.965C361.28 169.709 361.585 169.824 361.821 170.032C362.058 170.24 362.211 170.527 362.252 170.839C362.605 170.979 362.948 171.119 363.285 171.259C364.484 171.757 365.621 172.255 366.665 172.737C368.072 173.38 369.323 173.992 370.372 174.527C370.702 174.695 371.066 174.783 371.436 174.786C371.922 174.784 372.395 174.628 372.786 174.34C372.867 174.28 372.945 174.216 373.019 174.148C373.297 173.888 373.507 173.564 373.631 173.204C373.755 172.844 373.789 172.46 373.731 172.084C373.195 168.01 373.038 163.895 373.263 159.792C373.409 156.343 373.72 152.806 374.125 149.388C374.343 147.537 374.587 145.722 374.842 143.974C375.086 142.304 375.345 140.701 375.6 139.187C375.933 137.266 375.822 135.295 375.275 133.424C374.728 131.554 373.759 129.833 372.443 128.394Z" fill="#4722DF"/>
<path d="M351.163 128.819C350.897 128.705 350.623 128.61 350.343 128.534C348.96 128.162 347.488 128.299 346.198 128.921C344.907 129.543 343.884 130.607 343.314 131.921L339.747 140.146L339.301 141.184H351.62C351.842 141.183 352.064 141.209 352.279 141.261L352.695 140.302L354.273 136.661C354.9 135.209 354.924 133.568 354.342 132.098C353.759 130.628 352.616 129.449 351.163 128.819Z" fill="#4722DF"/>
<path d="M362.24 120.221C369.282 120.221 374.991 114.518 374.991 107.483C374.991 100.448 369.282 94.7446 362.24 94.7446C355.198 94.7446 349.489 100.448 349.489 107.483C349.489 114.518 355.198 120.221 362.24 120.221Z" fill="#FFB8B8"/>
<path d="M374.842 143.974L367.563 144.171L367.034 149.279L366.914 150.462L355.514 155.576L354.476 156.043V165.134L355.514 164.839L358.795 163.905H358.811L373.264 159.792L373.43 159.746C374.597 159.409 375.625 158.704 376.36 157.737C377.096 156.77 377.499 155.592 377.51 154.378L377.547 148.346L377.578 143.901L374.842 143.974Z" fill="#FFB8B8"/>
<path d="M377.208 133.871C377.16 133.089 376.958 132.324 376.615 131.62C376.271 130.916 375.791 130.287 375.204 129.768C374.018 128.72 372.463 128.186 370.882 128.283C369.302 128.38 367.824 129.1 366.775 130.285C365.726 131.47 365.192 133.023 365.289 134.602L366.083 147.547C366.104 147.888 366.2 148.22 366.365 148.519C366.529 148.818 366.757 149.078 367.033 149.28C367.472 149.606 368.013 149.766 368.559 149.731L374.125 149.388L375.812 149.285C376.119 149.27 376.42 149.192 376.697 149.058C376.973 148.923 377.22 148.734 377.421 148.502C377.466 148.452 377.507 148.4 377.546 148.346C377.876 147.905 378.038 147.36 378.002 146.811L377.208 133.871Z" fill="#4722DF"/>
<path d="M356.184 168.671H355.514V168.604C355.171 168.651 354.823 168.697 354.476 168.749V169.709H359.273C358.265 169.345 357.236 169 356.184 168.671ZM356.184 168.671H355.514V168.604C355.171 168.651 354.823 168.697 354.476 168.749V169.709H359.273C358.265 169.345 357.236 169 356.184 168.671ZM360.965 168.671H355.514V144.036C355.512 143.193 355.236 142.373 354.728 141.699C354.22 141.026 353.506 140.536 352.695 140.302C352.346 140.197 351.984 140.144 351.62 140.146H305.416C304.384 140.148 303.394 140.558 302.664 141.287C301.934 142.016 301.524 143.005 301.522 144.036V169.449C301.523 170.481 301.933 171.47 302.663 172.199C303.393 172.929 304.384 173.339 305.416 173.339H360.965C361.54 173.338 362.095 173.125 362.523 172.742C362.951 172.358 363.222 171.83 363.286 171.259C363.296 171.175 363.301 171.09 363.301 171.005C363.3 170.386 363.054 169.793 362.616 169.356C362.178 168.918 361.584 168.672 360.965 168.671H360.965ZM362.263 171.005C362.263 171.349 362.126 171.679 361.883 171.922C361.639 172.165 361.309 172.302 360.965 172.302H305.416C304.659 172.301 303.933 172.001 303.398 171.466C302.862 170.931 302.561 170.206 302.561 169.449V144.036C302.561 143.28 302.862 142.554 303.398 142.02C303.933 141.485 304.659 141.184 305.416 141.184H351.62C351.842 141.183 352.064 141.209 352.28 141.261C352.904 141.41 353.461 141.765 353.859 142.269C354.257 142.772 354.475 143.394 354.476 144.036V169.709H360.965C361.28 169.709 361.585 169.824 361.822 170.032C362.059 170.24 362.212 170.527 362.253 170.839C362.258 170.896 362.263 170.948 362.263 171.005H362.263ZM356.184 168.671H355.514V168.604C355.171 168.651 354.823 168.697 354.476 168.749V169.709H359.273C358.265 169.345 357.236 169 356.184 168.671Z" fill="#3F3D56"/>
<path d="M328.516 159.855C330.237 159.855 331.631 158.462 331.631 156.743C331.631 155.025 330.237 153.632 328.516 153.632C326.796 153.632 325.401 155.025 325.401 156.743C325.401 158.462 326.796 159.855 328.516 159.855Z" fill="#2F2E41"/>
<path d="M359.517 102.43C356.556 105.073 352.585 107.91 348.958 105.974C346.577 104.702 345.517 101.914 346.073 99.2741C347.073 94.5274 351.18 91.9627 355.157 89.8895C360.328 87.1943 366.033 84.8439 371.822 85.5446C377.612 86.2452 383.268 91.0243 382.995 96.8439C382.775 101.524 378.95 105.89 380.16 110.416C381.379 114.971 386.914 116.735 391.628 116.967C396.342 117.199 401.532 116.797 405.271 119.674C410.042 123.344 409.965 131.018 406.569 135.985C403.173 140.951 397.438 143.746 391.805 145.871C384.342 148.686 376.139 150.72 368.435 148.65C360.731 146.581 353.987 139.197 355.117 131.308C355.594 127.975 357.349 124.984 359.043 122.074C360.736 119.163 362.44 116.129 362.795 112.781C363.092 109.992 362.205 106.912 360.145 105.115C359.772 104.802 359.508 104.379 359.391 103.907C359.274 103.435 359.31 102.938 359.493 102.487L359.517 102.43Z" fill="#2F2E41"/>
<path d="M0.617982 235H402.073C402.237 235 402.394 234.935 402.51 234.819C402.626 234.703 402.691 234.546 402.691 234.382C402.691 234.219 402.626 234.062 402.51 233.946C402.394 233.83 402.237 233.765 402.073 233.765H0.617982C0.536656 233.765 0.456085 233.781 0.380881 233.811C0.305678 233.842 0.237326 233.888 0.179736 233.945C0.122146 234.003 0.0764522 234.071 0.0452754 234.146C0.0140985 234.221 -0.00195312 234.301 -0.00195312 234.382C-0.00195312 234.464 0.0140985 234.544 0.0452754 234.619C0.0764522 234.694 0.122146 234.762 0.179736 234.82C0.237326 234.877 0.305678 234.923 0.380881 234.954C0.456085 234.984 0.536656 235 0.617982 235Z" fill="#3F3D56"/>
<path d="M20.9893 183.472V184.509C20.9908 186.228 21.6749 187.876 22.8916 189.091C24.1083 190.307 25.758 190.99 27.4786 190.992H74.2021C75.923 190.991 77.5732 190.308 78.79 189.092C80.0069 187.877 80.6908 186.228 80.6914 184.509V183.472C80.6947 181.955 80.1614 180.485 79.1857 179.323C78.861 178.937 78.4935 178.589 78.0904 178.285C78.0904 178.285 52.4028 177.704 52.4028 176.989H27.4786C25.7583 176.991 24.1091 177.675 22.8926 178.89C21.6761 180.105 20.9916 181.753 20.9893 183.472Z" fill="#3F3D56"/>
<path d="M47.2091 234.3H53.958L53.958 190.734H47.2091L47.2091 234.3Z" fill="#3F3D56"/>
<path d="M28 234.063C28 234.791 38.227 234.345 50.8426 234.345C63.4582 234.345 73.6851 234.791 73.6851 234.063C73.6851 233.334 63.4582 227.557 50.8426 227.557C38.227 227.557 28 233.334 28 234.063Z" fill="#3F3D56"/>
<path d="M84.8965 228.728H91.2613L94.289 204.202L84.8955 204.203L84.8965 228.728Z" fill="#A0616A"/>
<path d="M103.536 234.631L83.533 234.632L83.5326 226.911L95.8073 226.911C97.857 226.911 99.8228 227.724 101.272 229.172C102.722 230.62 103.536 232.584 103.536 234.631L103.536 234.631Z" fill="#2F2E41"/>
<path d="M94.8321 225.179L100.905 223.275L96.444 198.969L87.4814 201.779L94.8321 225.179Z" fill="#A0616A"/>
<path d="M114.386 225.237L95.3002 231.22L92.9862 223.854L104.698 220.182C106.653 219.569 108.773 219.757 110.59 220.705C112.407 221.653 113.772 223.283 114.386 225.237L114.386 225.237Z" fill="#2F2E41"/>
<path d="M90.5743 213.891L78.9312 183.358C76.3191 183.971 54.4135 188.814 47.0767 181.01C44.5624 178.335 44.072 174.46 45.6192 169.492L49.9009 164.117L50.034 164.124C51.6529 164.209 89.7153 166.34 92.3245 177.81C94.5244 187.48 98.5421 205.508 99.721 210.803C99.8405 211.352 99.7587 211.925 99.4906 212.418C99.2224 212.912 98.7857 213.293 98.2601 213.491L93.5777 215.245C93.3168 215.344 93.0404 215.394 92.7616 215.394C92.2877 215.394 91.8249 215.25 91.4343 214.982C91.0438 214.714 90.7439 214.333 90.5743 213.891Z" fill="#2F2E41"/>
<path d="M83.8252 217.522L72.1821 186.989C69.5699 187.602 47.6645 192.444 40.3277 184.64C37.8133 181.966 37.323 178.091 38.8701 173.122L43.1519 167.747L43.2849 167.754C44.9039 167.839 82.9663 169.971 85.5755 181.44C87.7754 191.11 91.7931 209.138 92.9719 214.434C93.0914 214.982 93.0097 215.555 92.7415 216.049C92.4734 216.542 92.0367 216.923 91.5111 217.122L86.8287 218.876C86.5678 218.974 86.2914 219.024 86.0126 219.024C85.5386 219.024 85.0758 218.881 84.6853 218.612C84.2948 218.344 83.9949 217.964 83.8252 217.522Z" fill="#2F2E41"/>
<path d="M73.3523 158.284C71.6267 158.283 69.9308 157.835 68.4306 156.983C66.9305 156.131 65.6775 154.905 64.7944 153.424L61.0967 147.166L69.8855 142.367L73.6174 147.479L98.9381 144.814C99.0614 144.591 99.2 144.377 99.353 144.174C99.8389 143.535 100.454 143.006 101.158 142.62C101.862 142.235 102.64 142.002 103.44 141.936C104.244 141.867 105.054 141.971 105.814 142.241C106.575 142.51 107.269 142.939 107.849 143.498C108.781 144.391 109.383 145.571 109.558 146.848C109.733 148.125 109.471 149.423 108.815 150.533C108.404 151.224 107.852 151.821 107.194 152.285C106.537 152.748 105.788 153.067 104.999 153.221C104.209 153.376 103.395 153.361 102.611 153.18C101.827 152.998 101.091 152.653 100.45 152.167C100.301 152.054 100.159 151.932 100.023 151.804L75.7707 157.981C74.9803 158.183 74.1679 158.284 73.3523 158.284Z" fill="#A0616A"/>
<path d="M38.7049 174.735C38.3545 174.482 38.0809 174.138 37.9142 173.74C37.7476 173.342 37.6945 172.906 37.7608 172.479C39.2054 162.966 37.5433 149.338 35.8946 139.581C35.5571 137.601 35.6885 135.57 36.2781 133.65C36.8677 131.73 37.8992 129.975 39.29 128.525C40.6808 127.075 42.3922 125.97 44.2871 125.3C46.182 124.629 48.2077 124.412 50.202 124.664C51.9371 124.893 53.656 125.231 55.3483 125.677C58.1593 126.385 60.6458 128.026 62.399 130.333C64.1522 132.639 65.0677 135.472 64.9951 138.367C64.7486 147.783 66.6623 159.531 67.4965 164.144C67.5535 164.461 67.5444 164.786 67.47 165.1C67.3955 165.413 67.2572 165.707 67.0637 165.965C66.874 166.22 66.633 166.432 66.3563 166.588C66.0795 166.745 65.7731 166.841 65.4567 166.872C56.2116 167.815 46.2418 172.319 41.1218 174.92C40.7928 175.09 40.4281 175.179 40.0578 175.18C39.5711 175.178 39.0974 175.022 38.7049 174.735Z" fill="#CCCCCC"/>
<path d="M63.6608 150.197C63.375 150.085 63.1144 149.917 62.894 149.704C62.6736 149.491 62.4977 149.236 62.3766 148.954L57.2207 137.055C56.9085 136.336 56.7412 135.563 56.7283 134.779C56.7155 133.996 56.8573 133.217 57.1457 132.489C57.4341 131.76 57.8634 131.095 58.4092 130.532C58.9549 129.969 59.6063 129.519 60.3262 129.208C61.0461 128.897 61.8203 128.73 62.6046 128.718C63.389 128.706 64.168 128.848 64.8973 129.137C65.6265 129.426 66.2916 129.855 66.8546 130.401C67.4177 130.946 67.8675 131.597 68.1785 132.317L73.3345 144.216C73.5798 144.784 73.5895 145.426 73.3616 146.001C73.1337 146.576 72.6867 147.038 72.1186 147.284L65.4487 150.169C65.1674 150.291 64.8645 150.357 64.5576 150.362C64.2507 150.367 63.9459 150.311 63.6608 150.197H63.6608Z" fill="#CCCCCC"/>
<path d="M49.2538 120.616C56.2959 120.616 62.0046 114.913 62.0046 107.878C62.0046 100.843 56.2959 95.1397 49.2538 95.1397C42.2117 95.1397 36.5029 100.843 36.5029 107.878C36.5029 114.913 42.2117 120.616 49.2538 120.616Z" fill="#A0616A"/>
<path d="M41.5484 119.195C41.3678 119.403 41.1472 119.573 40.8997 119.695C40.6521 119.817 40.3827 119.887 40.1073 119.903C39.8319 119.919 39.5561 119.879 39.2962 119.787C39.0364 119.694 38.7977 119.551 38.5944 119.364C35.7512 117.065 33.4962 114.123 32.0156 110.782C30.3579 106.834 30.115 102.017 32.0016 98.3173C33.5964 95.1895 36.4593 93.1985 39.3174 91.5713C40.4131 90.8816 41.6138 90.3746 42.8724 90.0702C43.5082 89.926 44.1671 89.9165 44.8067 90.0421C45.4464 90.1678 46.0526 90.4259 46.5864 90.7998C47.1528 91.2301 47.5911 91.8063 47.8544 92.4667C48.1176 93.1271 48.1958 93.8467 48.0805 94.5481C49.3879 92.8275 51.1504 91.5061 53.1693 90.7327C54.408 90.2001 55.792 90.1075 57.0908 90.4703C58.9263 91.0824 60.2849 92.934 61.0409 94.9234C61.6523 96.4464 61.8763 98.0972 61.6927 99.7279C61.6126 100.507 61.3749 101.261 60.9939 101.945C60.6129 102.629 60.0966 103.228 59.4764 103.707C57.9792 104.739 56.0504 104.634 54.3092 104.177C52.5681 103.72 50.8782 102.946 49.1067 102.73C47.3352 102.514 45.3718 102.982 44.3163 104.561C43.573 105.672 43.3978 107.137 43.2461 108.532L42.4573 115.793C42.4016 116.831 42.1776 117.854 41.794 118.821C41.7291 118.956 41.6465 119.082 41.5484 119.195Z" fill="#2F2E41"/>
<path d="M87.6682 197.649H66.9684C66.6329 197.65 66.3017 197.575 65.9998 197.429C65.698 197.282 65.4335 197.069 65.2265 196.806C65.0149 196.538 64.8672 196.226 64.7946 195.893C64.722 195.56 64.7264 195.215 64.8075 194.884C66.7437 186.782 66.7437 178.338 64.8073 170.236C64.7263 169.905 64.722 169.56 64.7946 169.227C64.8672 168.894 65.0149 168.582 65.2265 168.315C65.4335 168.051 65.698 167.838 65.9998 167.692C66.3017 167.546 66.6329 167.47 66.9684 167.471H87.6682C88.1971 167.472 88.7085 167.661 89.1113 168.003C89.5141 168.346 89.7822 168.82 89.8678 169.341C91.2179 178.102 91.2179 187.018 89.8678 195.779C89.7822 196.3 89.5141 196.775 89.1113 197.117C88.7085 197.459 88.1971 197.648 87.6682 197.649Z" fill="#4722DF"/>
<path d="M71.7803 178.714V178.106C71.7807 177.693 71.945 177.298 72.2369 177.006C72.5289 176.714 72.9248 176.55 73.3377 176.55H84.2002C84.6131 176.55 85.009 176.714 85.301 177.006C85.5929 177.298 85.7572 177.693 85.7576 178.106V178.714C85.7572 179.126 85.5929 179.522 85.301 179.813C85.009 180.105 84.6131 180.269 84.2002 180.27H73.3377C72.9248 180.269 72.5289 180.105 72.2369 179.813C71.945 179.522 71.7807 179.126 71.7803 178.714Z" fill="white"/>
<path d="M71.7803 185.116V184.508C71.7807 184.095 71.945 183.7 72.2369 183.408C72.5289 183.117 72.9248 182.953 73.3377 182.952H84.2002C84.6131 182.953 85.009 183.117 85.301 183.408C85.5929 183.7 85.7572 184.095 85.7576 184.508V185.116C85.7572 185.529 85.5929 185.924 85.301 186.216C85.009 186.507 84.6131 186.671 84.2002 186.672H73.3377C72.9248 186.671 72.5289 186.507 72.2369 186.216C71.945 185.924 71.7807 185.529 71.7803 185.116Z" fill="white"/>
<path d="M78.4581 160.176C78.2431 159.904 78.093 159.587 78.0191 159.249C77.9453 158.91 77.9497 158.559 78.0321 158.223C80.0003 149.988 80.0003 141.405 78.0319 133.17C77.9497 132.833 77.9453 132.482 78.0191 132.144C78.093 131.805 78.2431 131.488 78.4582 131.216C78.6686 130.949 78.9375 130.732 79.2443 130.584C79.5511 130.435 79.8877 130.358 80.2287 130.36H101.268C101.806 130.361 102.326 130.552 102.735 130.9C103.145 131.248 103.417 131.73 103.504 132.26C104.877 141.165 104.877 150.227 103.504 159.132C103.417 159.662 103.145 160.144 102.735 160.492C102.326 160.84 101.806 161.032 101.268 161.033H80.2286C79.8877 161.034 79.5511 160.957 79.2443 160.809C78.9374 160.66 78.6686 160.444 78.4581 160.176Z" fill="#2F2E41"/>
<path d="M97.2083 141.677H86.1248C85.7119 141.677 85.316 141.512 85.024 141.221C84.7321 140.929 84.5678 140.534 84.5674 140.121V139.46C84.5678 139.048 84.7321 138.652 85.024 138.361C85.316 138.069 85.7119 137.905 86.1248 137.904H97.2083C97.6213 137.905 98.0171 138.069 98.3091 138.361C98.6011 138.652 98.7653 139.048 98.7658 139.46V140.121C98.7653 140.534 98.6011 140.929 98.3091 141.221C98.0171 141.512 97.6213 141.677 97.2083 141.677Z" fill="white"/>
<path d="M97.2083 148.185H86.1248C85.7119 148.184 85.316 148.02 85.024 147.728C84.7321 147.437 84.5678 147.041 84.5674 146.629V145.968C84.5678 145.555 84.7321 145.16 85.024 144.868C85.316 144.577 85.7119 144.412 86.1248 144.412H97.2083C97.6213 144.412 98.0171 144.577 98.3091 144.868C98.6011 145.16 98.7653 145.555 98.7658 145.968V146.629C98.7653 147.041 98.6011 147.437 98.3091 147.728C98.0171 148.02 97.6213 148.184 97.2083 148.185Z" fill="white"/>
<path d="M68.8048 171.585C68.0467 171.32 67.3529 170.899 66.7684 170.349C66.184 169.799 65.7221 169.132 65.4128 168.391C65.3414 168.219 65.2791 168.042 65.2263 167.863L38.0634 160.139C36.8961 159.802 35.8687 159.098 35.1335 158.132C34.3983 157.166 33.9946 155.988 33.9823 154.775L33.916 144.297L43.9283 144.565L44.5808 150.858L67.8079 161.276C68.0265 161.146 68.254 161.03 68.4887 160.931H68.4889C69.3444 160.573 70.2745 160.428 71.1987 160.509C72.1229 160.59 73.0134 160.895 73.7934 161.397C74.5735 161.898 75.2195 162.582 75.6758 163.389C76.1321 164.196 76.3848 165.102 76.4123 166.028C76.4398 166.955 76.2411 167.874 75.8335 168.707C75.4258 169.539 74.8215 170.26 74.0726 170.807C73.3236 171.354 72.4527 171.711 71.5349 171.846C70.6172 171.982 69.6802 171.892 68.8048 171.585Z" fill="#A0616A"/>
<path d="M34.0715 148.897C33.8676 148.668 33.7112 148.4 33.6114 148.11C33.5116 147.82 33.4704 147.513 33.4902 147.207L34.2865 134.266C34.3334 133.483 34.5343 132.718 34.8777 132.013C35.2211 131.308 35.7003 130.677 36.2879 130.157C36.8755 129.637 37.5599 129.239 38.3019 128.983C39.044 128.728 39.8292 128.621 40.6126 128.669C41.3959 128.718 42.1621 128.92 42.8673 129.264C43.5724 129.608 44.2027 130.088 44.722 130.676C45.2414 131.264 45.6396 131.948 45.8939 132.69C46.1482 133.432 46.2537 134.216 46.2041 134.999L45.4079 147.94C45.3691 148.558 45.0867 149.134 44.6227 149.544C44.1588 149.954 43.551 150.163 42.9328 150.126L35.6785 149.681C35.3721 149.663 35.0723 149.584 34.7964 149.45C34.5206 149.315 34.2742 149.127 34.0716 148.897H34.0715Z" fill="#CCCCCC"/>
<path d="M150.825 79.3844H108.254C107.016 79.3829 105.828 78.8907 104.952 78.0157C104.076 77.1406 103.583 75.9542 103.582 74.7166V28.5581C103.583 27.3205 104.076 26.1341 104.952 25.2591C105.828 24.384 107.016 23.8918 108.254 23.8904H150.825C152.063 23.8918 153.251 24.384 154.127 25.2591C155.003 26.1341 155.496 27.3205 155.497 28.5581V74.7166C155.496 75.9542 155.003 77.1406 154.127 78.0157C153.251 78.8907 152.063 79.3829 150.825 79.3844ZM108.254 24.9276C107.291 24.9287 106.367 25.3115 105.686 25.9921C105.005 26.6728 104.621 27.5955 104.62 28.5581V74.7166C104.621 75.6792 105.005 76.602 105.686 77.2826C106.367 77.9632 107.291 78.346 108.254 78.3471H150.825C151.788 78.346 152.712 77.9632 153.393 77.2826C154.074 76.602 154.458 75.6792 154.459 74.7166V28.5581C154.458 27.5955 154.074 26.6728 153.393 25.9921C152.712 25.3115 151.788 24.9287 150.825 24.9276H108.254Z" fill="#3F3D56"/>
<path d="M228.697 79.3844H186.126C184.888 79.3829 183.7 78.8907 182.824 78.0157C181.948 77.1406 181.456 75.9542 181.454 74.7166V28.5581C181.456 27.3205 181.948 26.1341 182.824 25.2591C183.7 24.384 184.888 23.8918 186.126 23.8904H228.697C229.935 23.8918 231.123 24.384 231.999 25.2591C232.875 26.1341 233.368 27.3205 233.369 28.5581V74.7166C233.368 75.9542 232.875 77.1406 231.999 78.0157C231.123 78.8907 229.935 79.3829 228.697 79.3844ZM186.126 24.9276C185.163 24.9287 184.239 25.3115 183.558 25.9921C182.877 26.6728 182.493 27.5955 182.492 28.5581V74.7166C182.493 75.6792 182.877 76.602 183.558 77.2826C184.239 77.9632 185.163 78.346 186.126 78.3471H228.697C229.66 78.346 230.584 77.9632 231.265 77.2826C231.946 76.602 232.33 75.6792 232.331 74.7166V28.5581C232.33 27.5955 231.946 26.6728 231.265 25.9921C230.584 25.3115 229.66 24.9287 228.697 24.9276H186.126Z" fill="#3F3D56"/>
<path d="M116.828 43.0799H112.675C112.056 43.0792 111.462 42.8331 111.024 42.3955C110.586 41.958 110.34 41.3648 110.339 40.746V36.5969C110.34 35.9782 110.586 35.3849 111.024 34.9474C111.462 34.5099 112.056 34.2637 112.675 34.2631H116.828C117.448 34.2637 118.041 34.5099 118.479 34.9474C118.917 35.3849 119.164 35.9782 119.164 36.5969V40.746C119.164 41.3648 118.917 41.958 118.479 42.3955C118.041 42.8331 117.448 43.0792 116.828 43.0799Z" fill="#3F3D56"/>
<path d="M116.828 56.0458H112.675C112.056 56.0451 111.462 55.799 111.024 55.3614C110.586 54.9239 110.34 54.3307 110.339 53.7119V49.5628C110.34 48.9441 110.586 48.3508 111.024 47.9133C111.462 47.4758 112.056 47.2296 112.675 47.229H116.828C117.448 47.2296 118.041 47.4758 118.479 47.9133C118.917 48.3508 119.164 48.9441 119.164 49.5628V53.7119C119.164 54.3307 118.917 54.9239 118.479 55.3614C118.041 55.799 117.448 56.0451 116.828 56.0458Z" fill="white"/>
<path d="M147.183 40.5577H127.793C127.38 40.5573 126.984 40.3932 126.692 40.1015C126.4 39.8098 126.236 39.4143 126.235 39.0018V38.3411C126.236 37.9286 126.4 37.5331 126.692 37.2414C126.984 36.9497 127.38 36.7857 127.793 36.7852H147.183C147.596 36.7857 147.991 36.9497 148.283 37.2414C148.575 37.5331 148.74 37.9286 148.74 38.3411V39.0018C148.74 39.4143 148.575 39.8098 148.283 40.1015C147.991 40.3932 147.596 40.5573 147.183 40.5577Z" fill="#3F3D56"/>
<path d="M195.059 42.2664H190.906C190.286 42.2657 189.692 42.0196 189.254 41.5821C188.816 41.1445 188.57 40.5513 188.569 39.9325V35.7835C188.57 35.1647 188.816 34.5715 189.254 34.1339C189.692 33.6964 190.286 33.4503 190.906 33.4496H195.059C195.678 33.4503 196.272 33.6964 196.71 34.1339C197.148 34.5715 197.394 35.1647 197.395 35.7835V39.9325C197.394 40.5513 197.148 41.1445 196.71 41.5821C196.272 42.0196 195.678 42.2657 195.059 42.2664Z" fill="white"/>
<path d="M225.413 39.7443H206.023C205.61 39.7438 205.214 39.5797 204.922 39.288C204.631 38.9964 204.466 38.6009 204.466 38.1884V37.5276C204.466 37.1151 204.631 36.7196 204.922 36.428C205.214 36.1363 205.61 35.9722 206.023 35.9717H225.413C225.826 35.9722 226.222 36.1363 226.514 36.428C226.806 36.7196 226.97 37.1151 226.971 37.5276V38.1884C226.97 38.6009 226.806 38.9964 226.514 39.288C226.222 39.5797 225.826 39.7438 225.413 39.7443Z" fill="white"/>
<path d="M225.413 52.1915H189.41C188.997 52.1911 188.601 52.027 188.309 51.7353C188.017 51.4436 187.853 51.0481 187.853 50.6356V49.9749C187.853 49.5624 188.017 49.1669 188.309 48.8752C188.601 48.5835 188.997 48.4194 189.41 48.419H225.413C225.826 48.4194 226.221 48.5835 226.513 48.8752C226.805 49.1669 226.97 49.5624 226.97 49.9749V50.6356C226.97 51.0481 226.805 51.4436 226.513 51.7353C226.221 52.027 225.826 52.1911 225.413 52.1915Z" fill="#3F3D56"/>
<path d="M225.413 61.0083H189.41C188.997 61.0079 188.601 60.8438 188.309 60.5521C188.017 60.2604 187.853 59.8649 187.853 59.4524V58.7917C187.853 58.3792 188.017 57.9837 188.309 57.692C188.601 57.4003 188.997 57.2363 189.41 57.2358H225.413C225.826 57.2363 226.221 57.4003 226.513 57.692C226.805 57.9837 226.97 58.3792 226.97 58.7917V59.4524C226.97 59.8649 226.805 60.2604 226.513 60.5521C226.221 60.8438 225.826 61.0079 225.413 61.0083Z" fill="white"/>
<path d="M225.413 69.8251H189.41C188.997 69.8247 188.601 69.6606 188.309 69.3689C188.017 69.0772 187.853 68.6817 187.853 68.2692V67.6085C187.853 67.196 188.017 66.8005 188.309 66.5088C188.601 66.2171 188.997 66.0531 189.41 66.0526H225.413C225.826 66.0531 226.221 66.2171 226.513 66.5088C226.805 66.8005 226.97 67.196 226.97 67.6085V68.2692C226.97 68.6817 226.805 69.0772 226.513 69.3689C226.221 69.6606 225.826 69.8247 225.413 69.8251Z" fill="white"/>
<path d="M306.569 79.3844H263.999C262.76 79.3829 261.572 78.8907 260.696 78.0157C259.82 77.1406 259.328 75.9542 259.326 74.7166V28.5581C259.328 27.3205 259.82 26.1341 260.696 25.2591C261.572 24.384 262.76 23.8918 263.999 23.8904H306.569C307.807 23.8918 308.995 24.384 309.871 25.2591C310.747 26.1341 311.24 27.3205 311.241 28.5581V74.7166C311.24 75.9542 310.747 77.1406 309.871 78.0157C308.995 78.8907 307.807 79.3829 306.569 79.3844ZM263.999 24.9276C263.035 24.9287 262.111 25.3115 261.43 25.9921C260.749 26.6728 260.366 27.5955 260.364 28.5581V74.7166C260.366 75.6792 260.749 76.602 261.43 77.2826C262.111 77.9632 263.035 78.346 263.999 78.3471H306.569C307.532 78.346 308.456 77.9632 309.137 77.2826C309.818 76.602 310.202 75.6792 310.203 74.7166V28.5581C310.202 27.5955 309.818 26.6728 309.137 25.9921C308.456 25.3115 307.532 24.9287 306.569 24.9276H263.999Z" fill="#3F3D56"/>
<path d="M303.285 39.7443H283.895C283.482 39.7438 283.087 39.5797 282.795 39.288C282.503 38.9964 282.338 38.6009 282.338 38.1884V37.5276C282.338 37.1151 282.503 36.7196 282.795 36.428C283.087 36.1363 283.482 35.9722 283.895 35.9717H303.285C303.698 35.9722 304.094 36.1363 304.386 36.428C304.678 36.7196 304.842 37.1151 304.843 37.5276V38.1884C304.842 38.6009 304.678 38.9964 304.386 39.288C304.094 39.5797 303.698 39.7438 303.285 39.7443Z" fill="white"/>
<path d="M303.285 52.1915H267.282C266.869 52.1911 266.473 52.027 266.181 51.7353C265.889 51.4436 265.725 51.0481 265.725 50.6356V49.9749C265.725 49.5624 265.889 49.1669 266.181 48.8752C266.473 48.5835 266.869 48.4194 267.282 48.419H303.285C303.698 48.4194 304.094 48.5835 304.386 48.8752C304.678 49.1669 304.842 49.5624 304.842 49.9749V50.6356C304.842 51.0481 304.678 51.4436 304.386 51.7353C304.094 52.027 303.698 52.1911 303.285 52.1915Z" fill="white"/>
<path d="M303.285 61.0083H267.282C266.869 61.0079 266.473 60.8438 266.181 60.5521C265.889 60.2604 265.725 59.8649 265.725 59.4524V58.7917C265.725 58.3792 265.889 57.9837 266.181 57.692C266.473 57.4003 266.869 57.2363 267.282 57.2358H303.285C303.698 57.2363 304.094 57.4003 304.386 57.692C304.678 57.9837 304.842 58.3792 304.842 58.7917V59.4524C304.842 59.8649 304.678 60.2604 304.386 60.5521C304.094 60.8438 303.698 61.0079 303.285 61.0083Z" fill="white"/>
<path d="M147.183 53.5236H127.793C127.38 53.5232 126.984 53.3591 126.692 53.0674C126.4 52.7757 126.236 52.3802 126.235 51.9677V51.307C126.236 50.8945 126.4 50.499 126.692 50.2073C126.984 49.9156 127.38 49.7515 127.793 49.7511H147.183C147.596 49.7515 147.991 49.9156 148.283 50.2073C148.575 50.499 148.74 50.8945 148.74 51.307V51.9677C148.74 52.3802 148.575 52.7757 148.283 53.0674C147.991 53.3591 147.596 53.5232 147.183 53.5236Z" fill="white"/>
<path d="M116.828 69.0117H112.675C112.056 69.011 111.462 68.7649 111.024 68.3273C110.586 67.8898 110.34 67.2966 110.339 66.6778V62.5287C110.34 61.9099 110.586 61.3167 111.024 60.8792C111.462 60.4417 112.056 60.1955 112.675 60.1949H116.828C117.448 60.1955 118.041 60.4417 118.479 60.8792C118.917 61.3167 119.164 61.9099 119.164 62.5287V66.6778C119.164 67.2966 118.917 67.8898 118.479 68.3273C118.041 68.7649 117.448 69.011 116.828 69.0117Z" fill="white"/>
<path d="M147.183 66.4895H127.793C127.38 66.489 126.984 66.325 126.692 66.0333C126.4 65.7416 126.236 65.3461 126.235 64.9336V64.2729C126.236 63.8604 126.4 63.4649 126.692 63.1732C126.984 62.8815 127.38 62.7174 127.793 62.717H147.183C147.596 62.7174 147.991 62.8815 148.283 63.1732C148.575 63.4649 148.74 63.8604 148.74 64.2729V64.9336C148.74 65.3461 148.575 65.7416 148.283 66.0333C147.991 66.325 147.596 66.489 147.183 66.4895Z" fill="white"/>
<path d="M275.419 37.3749C275.419 37.3629 275.42 37.3514 275.42 37.3394C275.42 36.7264 275.3 36.1194 275.065 35.5531C274.83 34.9868 274.486 34.4722 274.052 34.0388C273.618 33.6053 273.103 33.2615 272.536 33.0269C271.969 32.7924 271.362 32.6716 270.748 32.6716V37.3749H275.419Z" fill="#3F3D56"/>
<path d="M270.229 37.8935V33.1903C269.306 33.19 268.404 33.4625 267.636 33.9737C266.868 34.4848 266.269 35.2116 265.914 36.0624C265.559 36.9132 265.464 37.85 265.642 38.7546C265.819 39.6591 266.26 40.4911 266.91 41.1454C267.56 41.7998 268.389 42.2473 269.293 42.4315C270.197 42.6158 271.136 42.5285 271.99 42.1807C272.844 41.8329 273.577 41.2402 274.094 40.4772C274.612 39.7142 274.892 38.8152 274.899 37.8935H270.229Z" fill="white"/>
</g>
<defs>
<clipPath id="clip0">
<rect width="409" height="235" fill="white"/>
</clipPath>
</defs>
</svg>
